<svg data-v-423bf9ae="" xmlns="http://www.w3.org/2000/svg" viewBox="0 0 240 90" class="iconLeft"><!----><!----><!----><g data-v-423bf9ae="" id="c2fb883b-e04d-466f-a4a0-2eabaa7f9a5b" fill="white" transform="matrix(4.329004138368367,0,0,4.329004138368367,117.27272821388354,4.870130449360843)"><path d="M9.98 4.03L9.98 4.03L9.98 4.03Q9.57 5.17 9.21 6.34L9.21 6.34L9.21 6.34Q8.85 7.51 8.57 8.84L8.57 8.84L8.57 8.84Q8.30 10.17 8.13 11.71L8.13 11.71L8.13 11.71Q7.97 13.25 7.96 15.12L7.96 15.12L7.96 15.12Q7.88 15.18 7.72 15.27L7.72 15.27L7.72 15.27Q7.56 15.36 7.37 15.47L7.37 15.47L7.37 15.47Q7.17 15.57 6.96 15.68L6.96 15.68L6.96 15.68Q6.75 15.79 6.55 15.89L6.55 15.89L6.55 15.89Q6.36 16.00 6.20 16.08L6.20 16.08L6.20 16.08Q6.04 16.16 5.96 16.20L5.96 16.20L5.96 16.20Q5.97 15.69 6.03 15.07L6.03 15.07L6.03 15.07Q6.09 14.46 6.20 13.78L6.20 13.78L6.20 13.78Q6.30 13.10 6.44 12.37L6.44 12.37L6.44 12.37Q6.58 11.63 6.75 10.89L6.75 10.89L6.75 10.89Q6.25 11.55 5.81 11.99L5.81 11.99L5.81 11.99Q5.36 12.43 5.01 12.70L5.01 12.70L5.01 12.70Q4.61 13.02 4.26 13.20L4.26 13.20L4.26 13.20Q4.12 13.28 3.91 13.21L3.91 13.21L3.91 13.21Q3.71 13.15 3.50 13.01L3.50 13.01L3.50 13.01Q3.30 12.87 3.13 12.71L3.13 12.71L3.13 12.71Q2.97 12.54 2.90 12.43L2.90 12.43L2.90 12.43Q2.83 12.33 2.75 11.81L2.75 11.81L2.75 11.81Q2.67 11.30 2.64 10.34L2.64 10.34L2.64 10.34Q2.34 10.73 2.00 11.15L2.00 11.15L2.00 11.15Q1.66 11.57 1.31 11.99L1.31 11.99L1.31 11.99Q0.96 12.41 0.62 12.81L0.62 12.81L0.62 12.81Q0.27 13.20-0.02 13.52L-0.02 13.52L-0.02 13.52Q-0.32 13.85-0.56 14.09L-0.56 14.09L-0.56 14.09Q-0.79 14.32-0.92 14.42L-0.92 14.42L-0.92 14.42Q-0.99 14.35-1.09 14.25L-1.09 14.25L-1.09 14.25Q-1.19 14.16-1.30 14.05L-1.30 14.05L-1.30 14.05Q-1.40 13.95-1.50 13.84L-1.50 13.84L-1.50 13.84Q-1.61 13.73-1.68 13.64L-1.68 13.64L-1.68 13.64Q-0.68 12.76 0.34 11.17L0.34 11.17L0.34 11.17Q1.37 9.57 2.30 7.32L2.30 7.32L2.30 7.32Q2.40 7.41 2.49 7.49L2.49 7.49L2.49 7.49Q2.58 7.57 2.66 7.66L2.66 7.66L2.66 7.66Q2.71 6.58 2.83 5.26L2.83 5.26L2.83 5.26Q2.94 3.94 3.15 2.34L3.15 2.34L3.15 2.34Q3.19 2.35 3.31 2.47L3.31 2.47L3.31 2.47Q3.44 2.58 3.61 2.76L3.61 2.76L3.61 2.76Q3.78 2.93 3.97 3.13L3.97 3.13L3.97 3.13Q4.16 3.34 4.34 3.52L4.34 3.52L4.34 3.52Q4.51 3.71 4.64 3.85L4.64 3.85L4.64 3.85Q4.77 3.99 4.82 4.05L4.82 4.05L4.82 4.05Q4.81 4.10 4.76 4.34L4.76 4.34L4.76 4.34Q4.71 4.58 4.65 4.96L4.65 4.96L4.65 4.96Q4.58 5.33 4.50 5.82L4.50 5.82L4.50 5.82Q4.43 6.30 4.37 6.85L4.37 6.85L4.37 6.85Q4.31 7.39 4.26 7.97L4.26 7.97L4.26 7.97Q4.22 8.54 4.21 9.10L4.21 9.10L4.21 9.10Q4.20 9.33 4.20 9.64L4.20 9.64L4.20 9.64Q4.20 9.94 4.20 10.26L4.20 10.26L4.20 10.26Q4.20 10.58 4.21 10.89L4.21 10.89L4.21 10.89Q4.22 11.20 4.24 11.45L4.24 11.45L4.24 11.45Q4.26 11.70 4.30 11.86L4.30 11.86L4.30 11.86Q4.33 12.02 4.40 12.04L4.40 12.04L4.40 12.04Q4.47 12.06 4.76 11.84L4.76 11.84L4.76 11.84Q5.04 11.62 5.45 11.20L5.45 11.20L5.45 11.20Q5.85 10.77 6.33 10.17L6.33 10.17L6.33 10.17Q6.80 9.56 7.25 8.81L7.25 8.81L7.25 8.81Q7.45 8.01 7.66 7.27L7.66 7.27L7.66 7.27Q7.87 6.52 8.06 5.89L8.06 5.89L8.06 5.89Q8.26 5.25 8.43 4.75L8.43 4.75L8.43 4.75Q8.60 4.25 8.74 3.92L8.74 3.92L8.74 3.92Q8.87 3.93 9.05 3.94L9.05 3.94L9.05 3.94Q9.22 3.95 9.40 3.97L9.40 3.97L9.40 3.97Q9.58 3.99 9.73 4.00L9.73 4.00L9.73 4.00Q9.88 4.02 9.98 4.03ZM19.18 4.54L19.18 4.54L19.18 4.54Q19.19 4.55 19.21 4.60L19.21 4.60L19.21 4.60Q19.23 4.66 19.25 4.72L19.25 4.72L19.25 4.72Q19.27 4.79 19.29 4.85L19.29 4.85L19.29 4.85Q19.30 4.92 19.30 4.94L19.30 4.94L19.30 4.94Q19.30 5.17 19.21 5.50L19.21 5.50L19.21 5.50Q19.11 5.82 18.95 6.19L18.95 6.19L18.95 6.19Q18.78 6.55 18.55 6.92L18.55 6.92L18.55 6.92Q18.33 7.30 18.07 7.64L18.07 7.64L18.07 7.64Q17.82 7.98 17.55 8.25L17.55 8.25L17.55 8.25Q17.28 8.53 17.02 8.70L17.02 8.70L17.02 8.70Q16.93 8.61 16.79 8.48L16.79 8.48L16.79 8.48Q16.66 8.36 16.51 8.22L16.51 8.22L16.51 8.22Q16.36 8.08 16.21 7.94L16.21 7.94L16.21 7.94Q16.06 7.79 15.93 7.66L15.93 7.66L15.93 7.66Q16.13 7.50 16.38 7.24L16.38 7.24L16.38 7.24Q16.63 6.99 16.88 6.67L16.88 6.67L16.88 6.67Q17.14 6.36 17.38 6.02L17.38 6.02L17.38 6.02Q17.63 5.69 17.81 5.38L17.81 5.38L17.81 5.38Q17.99 5.07 18.09 4.81L18.09 4.81L18.09 4.81Q18.20 4.56 18.17 4.41L18.17 4.41L18.17 4.41Q18.15 4.33 18.10 4.30L18.10 4.30L18.10 4.30Q18.06 4.27 17.94 4.27L17.94 4.27L17.94 4.27Q17.53 4.27 16.98 4.44L16.98 4.44L16.98 4.44Q16.43 4.60 15.84 4.91L15.84 4.91L15.84 4.91Q15.24 5.22 14.64 5.67L14.64 5.67L14.64 5.67Q14.03 6.13 13.50 6.69L13.50 6.69L13.50 6.69Q12.97 7.26 12.56 7.94L12.56 7.94L12.56 7.94Q12.15 8.61 11.93 9.38L11.93 9.38L11.93 9.38Q12.41 9.37 12.84 9.34L12.84 9.34L12.84 9.34Q13.27 9.31 13.66 9.28L13.66 9.28L13.66 9.28Q14.05 9.24 14.40 9.21L14.40 9.21L14.40 9.21Q14.76 9.19 15.09 9.19L15.09 9.19L15.09 9.19Q15.27 9.19 15.48 9.38L15.48 9.38L15.48 9.38Q15.68 9.57 15.86 9.84L15.86 9.84L15.86 9.84Q16.04 10.10 16.15 10.38L16.15 10.38L16.15 10.38Q16.27 10.66 16.27 10.83L16.27 10.83L16.27 10.83Q16.27 11.32 16.02 11.81L16.02 11.81L16.02 11.81Q15.77 12.30 15.35 12.75L15.35 12.75L15.35 12.75Q14.93 13.21 14.38 13.60L14.38 13.60L14.38 13.60Q13.82 13.99 13.21 14.28L13.21 14.28L13.21 14.28Q12.60 14.57 11.96 14.74L11.96 14.74L11.96 14.74Q11.33 14.91 10.75 14.91L10.75 14.91L10.75 14.91Q10.68 14.85 10.55 14.72L10.55 14.72L10.55 14.72Q10.43 14.59 10.29 14.44L10.29 14.44L10.29 14.44Q10.15 14.29 10.00 14.12L10.00 14.12L10.00 14.12Q9.86 13.95 9.73 13.79L9.73 13.79L9.73 13.79Q9.60 13.63 9.51 13.50L9.51 13.50L9.51 13.50Q9.41 13.37 9.38 13.30L9.38 13.30L9.38 13.30Q9.75 13.36 10.28 13.33L10.28 13.33L10.28 13.33Q10.81 13.30 11.40 13.18L11.40 13.18L11.40 13.18Q11.99 13.06 12.59 12.83L12.59 12.83L12.59 12.83Q13.19 12.60 13.71 12.25L13.71 12.25L13.71 12.25Q14.23 11.90 14.62 11.42L14.62 11.42L14.62 11.42Q15.02 10.94 15.20 10.30L15.20 10.30L15.20 10.30Q14.80 10.31 14.48 10.34L14.48 10.34L14.48 10.34Q14.16 10.37 13.86 10.41L13.86 10.41L13.86 10.41Q13.56 10.45 13.24 10.47L13.24 10.47L13.24 10.47Q12.93 10.50 12.54 10.50L12.54 10.50L12.54 10.50Q12.42 10.50 12.28 10.50L12.28 10.50L12.28 10.50Q12.13 10.49 11.99 10.48L11.99 10.48L11.99 10.48Q11.85 10.46 11.72 10.42L11.72 10.42L11.72 10.42Q11.59 10.38 11.50 10.30L11.50 10.30L11.50 10.30Q11.32 10.14 11.15 9.97L11.15 9.97L11.15 9.97Q10.98 9.80 10.84 9.61L10.84 9.61L10.84 9.61Q10.71 9.43 10.62 9.25L10.62 9.25L10.62 9.25Q10.54 9.06 10.54 8.89L10.54 8.89L10.54 8.89Q10.54 8.37 10.80 7.73L10.80 7.73L10.80 7.73Q11.06 7.10 11.52 6.45L11.52 6.45L11.52 6.45Q11.98 5.80 12.61 5.19L12.61 5.19L12.61 5.19Q13.24 4.57 13.98 4.09L13.98 4.09L13.98 4.09Q14.72 3.62 15.54 3.33L15.54 3.33L15.54 3.33Q16.37 3.04 17.21 3.04L17.21 3.04L17.21 3.04Q17.50 3.04 17.74 3.13L17.74 3.13L17.74 3.13Q17.99 3.22 18.18 3.36L18.18 3.36L18.18 3.36Q18.38 3.51 18.54 3.68L18.54 3.68L18.54 3.68Q18.70 3.86 18.82 4.02L18.82 4.02L18.82 4.02Q18.94 4.18 19.03 4.32L19.03 4.32L19.03 4.32Q19.12 4.46 19.18 4.54ZM28.24 5.25L28.24 5.25L28.24 5.25Q28.24 5.95 27.99 6.70L27.99 6.70L27.99 6.70Q27.74 7.44 27.22 8.16L27.22 8.16L27.22 8.16Q26.69 8.87 25.88 9.51L25.88 9.51L25.88 9.51Q25.07 10.15 23.94 10.63L23.94 10.63L23.94 10.63Q24.22 11.31 24.52 11.92L24.52 11.92L24.52 11.92Q24.81 12.54 25.10 13.08L25.10 13.08L25.10 13.08Q25.40 13.62 25.66 14.09L25.66 14.09L25.66 14.09Q25.92 14.55 26.13 14.91L26.13 14.91L26.13 14.91Q25.95 14.97 25.70 15.05L25.70 15.05L25.70 15.05Q25.44 15.13 25.18 15.22L25.18 15.22L25.18 15.22Q24.91 15.31 24.65 15.38L24.65 15.38L24.65 15.38Q24.40 15.46 24.21 15.51L24.21 15.51L24.21 15.51Q24.15 15.36 24.05 15.04L24.05 15.04L24.05 15.04Q23.95 14.72 23.82 14.27L23.82 14.27L23.82 14.27Q23.69 13.82 23.54 13.27L23.54 13.27L23.54 13.27Q23.39 12.71 23.24 12.09L23.24 12.09L23.24 12.09Q23.09 11.47 22.96 10.81L22.96 10.81L22.96 10.81Q22.83 10.15 22.72 9.50L22.72 9.50L22.72 9.50Q23.59 9.19 24.28 8.82L24.28 8.82L24.28 8.82Q24.96 8.44 25.48 8.02L25.48 8.02L25.48 8.02Q26.00 7.60 26.37 7.16L26.37 7.16L26.37 7.16Q26.73 6.71 26.96 6.28L26.96 6.28L26.96 6.28Q27.19 5.85 27.29 5.45L27.29 5.45L27.29 5.45Q27.40 5.05 27.40 4.72L27.40 4.72L27.40 4.72Q27.40 4.59 27.38 4.49L27.38 4.49L27.38 4.49Q27.36 4.39 27.30 4.33L27.30 4.33L27.30 4.33Q27.23 4.27 27.12 4.25L27.12 4.25L27.12 4.25Q27.01 4.23 26.82 4.26L26.82 4.26L26.82 4.26Q26.50 4.33 26.12 4.51L26.12 4.51L26.12 4.51Q25.73 4.70 25.30 4.97L25.30 4.97L25.30 4.97Q24.88 5.25 24.41 5.61L24.41 5.61L24.41 5.61Q23.95 5.97 23.48 6.39L23.48 6.39L23.48 6.39Q23.23 7.18 22.90 8.07L22.90 8.07L22.90 8.07Q22.57 8.96 22.19 9.83L22.19 9.83L22.19 9.83Q21.81 10.71 21.39 11.54L21.39 11.54L21.39 11.54Q20.97 12.37 20.53 13.05L20.53 13.05L20.53 13.05Q20.10 13.74 19.66 14.24L19.66 14.24L19.66 14.24Q19.23 14.75 18.83 14.96L18.83 14.96L18.83 14.96Q18.72 15.02 18.58 15.07L18.58 15.07L18.58 15.07Q18.43 15.11 18.21 15.13L18.21 15.13L18.21 15.13Q18.13 15.14 18.02 15.07L18.02 15.07L18.02 15.07Q17.90 14.99 17.79 14.88L17.79 14.88L17.79 14.88Q17.67 14.76 17.55 14.62L17.55 14.62L17.55 14.62Q17.44 14.47 17.34 14.34L17.34 14.34L17.34 14.34Q17.24 14.21 17.18 14.11L17.18 14.11L17.18 14.11Q17.11 14.01 17.09 13.97L17.09 13.97L17.09 13.97Q17.04 13.87 17.03 13.73L17.03 13.73L17.03 13.73Q17.03 13.59 17.06 13.45L17.06 13.45L17.06 13.45Q17.20 13.00 17.45 12.45L17.45 12.45L17.45 12.45Q17.69 11.90 18.02 11.30L18.02 11.30L18.02 11.30Q18.35 10.71 18.76 10.07L18.76 10.07L18.76 10.07Q19.17 9.44 19.64 8.81L19.64 8.81L19.64 8.81Q20.10 8.19 20.62 7.58L20.62 7.58L20.62 7.58Q21.14 6.97 21.68 6.42L21.68 6.42L21.68 6.42Q22.03 5.33 22.26 4.36L22.26 4.36L22.26 4.36Q22.48 3.39 22.52 2.67L22.52 2.67L22.52 2.67Q22.80 2.78 23.04 2.95L23.04 2.95L23.04 2.95Q23.29 3.12 23.49 3.31L23.49 3.31L23.49 3.31Q23.69 3.49 23.84 3.68L23.84 3.68L23.84 3.68Q23.99 3.86 24.08 4.01L24.08 4.01L24.08 4.01Q24.06 4.12 24.04 4.24L24.04 4.24L24.04 4.24Q24.02 4.36 23.99 4.50L23.99 4.50L23.99 4.50Q24.68 4.05 25.34 3.80L25.34 3.80L25.34 3.80Q26.01 3.55 26.64 3.55L26.64 3.55L26.64 3.55Q26.79 3.55 26.97 3.64L26.97 3.64L26.97 3.64Q27.15 3.73 27.32 3.87L27.32 3.87L27.32 3.87Q27.49 4.01 27.66 4.19L27.66 4.19L27.66 4.19Q27.82 4.37 27.95 4.56L27.95 4.56L27.95 4.56Q28.08 4.74 28.15 4.93L28.15 4.93L28.15 4.93Q28.23 5.11 28.24 5.25ZM18.17 13.73L18.17 13.73L18.17 13.73Q18.33 13.73 18.59 13.38L18.59 13.38L18.59 13.38Q18.86 13.04 19.19 12.43L19.19 12.43L19.19 12.43Q19.52 11.83 19.89 11.03L19.89 11.03L19.89 11.03Q20.26 10.23 20.62 9.34L20.62 9.34L20.62 9.34Q20.08 9.98 19.62 10.61L19.62 10.61L19.62 10.61Q19.16 11.24 18.82 11.80L18.82 11.80L18.82 11.80Q18.48 12.37 18.29 12.84L18.29 12.84L18.29 12.84Q18.10 13.32 18.10 13.65L18.10 13.65L18.10 13.65Q18.10 13.73 18.17 13.73Z"></path></g><!----><g data-v-423bf9ae="" id="7fa9c519-b01c-4ec0-970b-4c7e2584a6fa" transform="matrix(2.8125,0,0,2.8125,0,0)" stroke="none" fill="white"><path d="M16 32c8.837 0 16-7.163 16-16S24.837 0 16 0 0 7.163 0 16s7.163 16 16 16zM14.817 6.421h2v8.886h8.887v2H14.817V6.421zm-5.959.437h2v14.283h14.283v2H8.858V6.858z"></path></g><!----></svg>